<svg width="28" height="28" viewBox="0 0 28 28" fill="none" xmlns="http://www.w3.org/2000/svg">
<path d="M0.828456 2.42146C0.723858 2.31686 0.640887 2.19268 0.584279 2.05602C0.527671 1.91936 0.498535 1.77288 0.498535 1.62496C0.498535 1.47703 0.527671 1.33056 0.584279 1.19389C0.640887 1.05723 0.723858 0.933054 0.828456 0.828456C0.933054 0.723858 1.05723 0.640887 1.19389 0.584279C1.33056 0.527671 1.47703 0.498535 1.62496 0.498535C1.77288 0.498535 1.91936 0.527671 2.05602 0.584279C2.19268 0.640887 2.31686 0.723858 2.42146 0.828456L14 12.4092L25.5785 0.828456C25.6831 0.723858 25.8072 0.640887 25.9439 0.584279C26.0806 0.527671 26.227 0.498535 26.375 0.498535C26.5229 0.498535 26.6694 0.527671 26.806 0.584279C26.9427 0.640887 27.0669 0.723858 27.1715 0.828456C27.2761 0.933054 27.359 1.05723 27.4156 1.19389C27.4722 1.33056 27.5014 1.47703 27.5014 1.62496C27.5014 1.77288 27.4722 1.91936 27.4156 2.05602C27.359 2.19268 27.2761 2.31686 27.1715 2.42146L15.5907 14L27.1715 25.5785C27.2761 25.6831 27.359 25.8072 27.4156 25.9439C27.4722 26.0806 27.5014 26.227 27.5014 26.375C27.5014 26.5229 27.4722 26.6694 27.4156 26.806C27.359 26.9427 27.2761 27.0669 27.1715 27.1715C27.0669 27.2761 26.9427 27.359 26.806 27.4156C26.6694 27.4722 26.5229 27.5014 26.375 27.5014C26.227 27.5014 26.0806 27.4722 25.9439 27.4156C25.8072 27.359 25.6831 27.2761 25.5785 27.1715L14 15.5907L2.42146 27.1715C2.31686 27.2761 2.19268 27.359 2.05602 27.4156C1.91936 27.4722 1.77288 27.5014 1.62496 27.5014C1.47703 27.5014 1.33056 27.4722 1.19389 27.4156C1.05723 27.359 0.933054 27.2761 0.828456 27.1715C0.723858 27.0669 0.640887 26.9427 0.584279 26.806C0.527671 26.6694 0.498535 26.5229 0.498535 26.375C0.498535 26.227 0.527671 26.0806 0.584279 25.9439C0.640887 25.8072 0.723858 25.6831 0.828456 25.5785L12.4092 14L0.828456 2.42146Z" fill="#21272A"/>
</svg>
