<svg width="16" height="14" viewBox="0 0 16 14" fill="none" xmlns="http://www.w3.org/2000/svg">
<path fill-rule="evenodd" clip-rule="evenodd" d="M0 13.2222C0 13.0159 0.0766233 12.8181 0.213013 12.6722C0.349403 12.5264 0.534388 12.4444 0.727273 12.4444H15.2727C15.4656 12.4444 15.6506 12.5264 15.787 12.6722C15.9234 12.8181 16 13.0159 16 13.2222C16 13.4285 15.9234 13.6263 15.787 13.7722C15.6506 13.9181 15.4656 14 15.2727 14H0.727273C0.534388 14 0.349403 13.9181 0.213013 13.7722C0.0766233 13.6263 0 13.4285 0 13.2222ZM0 7C0 6.79372 0.0766233 6.59589 0.213013 6.45003C0.349403 6.30417 0.534388 6.22222 0.727273 6.22222H15.2727C15.4656 6.22222 15.6506 6.30417 15.787 6.45003C15.9234 6.59589 16 6.79372 16 7C16 7.20628 15.9234 7.40411 15.787 7.54997C15.6506 7.69583 15.4656 7.77778 15.2727 7.77778H0.727273C0.534388 7.77778 0.349403 7.69583 0.213013 7.54997C0.0766233 7.40411 0 7.20628 0 7ZM0 0.777778C0 0.571498 0.0766233 0.373668 0.213013 0.227806C0.349403 0.0819444 0.534388 0 0.727273 0H15.2727C15.4656 0 15.6506 0.0819444 15.787 0.227806C15.9234 0.373668 16 0.571498 16 0.777778C16 0.984057 15.9234 1.18189 15.787 1.32775C15.6506 1.47361 15.4656 1.55556 15.2727 1.55556H0.727273C0.534388 1.55556 0.349403 1.47361 0.213013 1.32775C0.0766233 1.18189 0 0.984057 0 0.777778V0.777778Z" fill="#21272A"/>
</svg>
