<svg width="15" height="8" viewBox="0 0 15 8" fill="none" xmlns="http://www.w3.org/2000/svg">
<mask id="path-1-outside-1_1_39" maskUnits="userSpaceOnUse" x="0" y="0" width="15" height="8" fill="black">
<rect fill="white" width="15" height="8"/>
<path d="M14.6889 4.67614V3.9375L8.7429 0.909091V2.09091L13.304 4.28835L13.267 4.21449V4.39915L13.304 4.32528L8.7429 6.52273V7.70455L14.6889 4.67614ZM0.173562 4.67614L6.11958 7.70455V6.52273L1.5585 4.32528L1.59544 4.39915V4.21449L1.5585 4.28835L6.11958 2.09091V0.909091L0.173562 3.9375V4.67614Z"/>
</mask>
<path d="M14.6889 4.67614V3.9375L8.7429 0.909091V2.09091L13.304 4.28835L13.267 4.21449V4.39915L13.304 4.32528L8.7429 6.52273V7.70455L14.6889 4.67614ZM0.173562 4.67614L6.11958 7.70455V6.52273L1.5585 4.32528L1.59544 4.39915V4.21449L1.5585 4.28835L6.11958 2.09091V0.909091L0.173562 3.9375V4.67614Z" fill="#F2A7A7"/>
<path d="M14.6889 4.67614H14.7389V4.70678L14.7116 4.72069L14.6889 4.67614ZM14.6889 3.9375L14.7116 3.89295L14.7389 3.90685V3.9375H14.6889ZM8.7429 0.909091H8.6929V0.827513L8.76559 0.864537L8.7429 0.909091ZM8.7429 2.09091L8.7212 2.13595L8.6929 2.12232V2.09091H8.7429ZM13.304 4.28835L13.3487 4.26599L13.4142 4.39694L13.2823 4.3334L13.304 4.28835ZM13.267 4.21449H13.217L13.3118 4.19213L13.267 4.21449ZM13.267 4.39915L13.3118 4.42151L13.217 4.39915H13.267ZM13.304 4.32528L13.2823 4.28024L13.4142 4.21669L13.3487 4.34764L13.304 4.32528ZM8.7429 6.52273H8.6929V6.49132L8.7212 6.47768L8.7429 6.52273ZM8.7429 7.70455L8.76559 7.7491L8.6929 7.78612V7.70455H8.7429ZM14.6889 4.67614H14.6389V3.9375H14.6889H14.7389V4.67614H14.6889ZM14.6889 3.9375L14.6662 3.98205L8.72021 0.953645L8.7429 0.909091L8.76559 0.864537L14.7116 3.89295L14.6889 3.9375ZM8.7429 0.909091H8.7929V2.09091H8.7429H8.6929V0.909091H8.7429ZM8.7429 2.09091L8.7646 2.04586L13.3257 4.24331L13.304 4.28835L13.2823 4.3334L8.7212 2.13595L8.7429 2.09091ZM13.304 4.28835L13.2593 4.31071L13.2223 4.23685L13.267 4.21449L13.3118 4.19213L13.3487 4.26599L13.304 4.28835ZM13.267 4.21449H13.317V4.39915H13.267H13.217V4.21449H13.267ZM13.267 4.39915L13.2223 4.37679L13.2593 4.30292L13.304 4.32528L13.3487 4.34764L13.3118 4.42151L13.267 4.39915ZM13.304 4.32528L13.3257 4.37033L8.7646 6.56777L8.7429 6.52273L8.7212 6.47768L13.2823 4.28024L13.304 4.32528ZM8.7429 6.52273H8.7929V7.70455H8.7429H8.6929V6.52273H8.7429ZM8.7429 7.70455L8.72021 7.65999L14.6662 4.63158L14.6889 4.67614L14.7116 4.72069L8.76559 7.7491L8.7429 7.70455ZM0.173562 4.67614L0.15087 4.72069L0.123562 4.70678V4.67614H0.173562ZM6.11958 7.70455H6.16958V7.78612L6.09689 7.7491L6.11958 7.70455ZM6.11958 6.52273L6.14129 6.47768L6.16958 6.49132V6.52273H6.11958ZM1.5585 4.32528L1.51378 4.34764L1.44831 4.21669L1.58021 4.28024L1.5585 4.32528ZM1.59544 4.39915H1.64544L1.55072 4.42151L1.59544 4.39915ZM1.59544 4.21449L1.55072 4.19213L1.64544 4.21449H1.59544ZM1.5585 4.28835L1.58021 4.3334L1.44831 4.39694L1.51378 4.26599L1.5585 4.28835ZM6.11958 2.09091H6.16958V2.12232L6.14129 2.13595L6.11958 2.09091ZM6.11958 0.909091L6.09689 0.864537L6.16958 0.827513V0.909091H6.11958ZM0.173562 3.9375H0.123562V3.90685L0.15087 3.89295L0.173562 3.9375ZM0.173562 4.67614L0.196254 4.63158L6.14228 7.65999L6.11958 7.70455L6.09689 7.7491L0.15087 4.72069L0.173562 4.67614ZM6.11958 7.70455H6.06958V6.52273H6.11958H6.16958V7.70455H6.11958ZM6.11958 6.52273L6.09788 6.56777L1.5368 4.37033L1.5585 4.32528L1.58021 4.28024L6.14129 6.47768L6.11958 6.52273ZM1.5585 4.32528L1.60323 4.30292L1.64016 4.37679L1.59544 4.39915L1.55072 4.42151L1.51378 4.34764L1.5585 4.32528ZM1.59544 4.39915H1.54544V4.21449H1.59544H1.64544V4.39915H1.59544ZM1.59544 4.21449L1.64016 4.23685L1.60323 4.31071L1.5585 4.28835L1.51378 4.26599L1.55072 4.19213L1.59544 4.21449ZM1.5585 4.28835L1.5368 4.24331L6.09788 2.04586L6.11958 2.09091L6.14129 2.13595L1.58021 4.3334L1.5585 4.28835ZM6.11958 2.09091H6.06958V0.909091H6.11958H6.16958V2.09091H6.11958ZM6.11958 0.909091L6.14228 0.953645L0.196254 3.98205L0.173562 3.9375L0.15087 3.89295L6.09689 0.864537L6.11958 0.909091ZM0.173562 3.9375H0.223562V4.67614H0.173562H0.123562V3.9375H0.173562Z" fill="black" mask="url(#path-1-outside-1_1_39)"/>
</svg>
